<?xml version="1.0" standalone="no"?>
<!DOCTYPE svg PUBLIC "-//W3C//DTD SVG 20010904//EN"
 "http://www.w3.org/TR/2001/REC-SVG-20010904/DTD/svg10.dtd">
<svg version="1.0" xmlns="http://www.w3.org/2000/svg"
 width="1000.000000pt" height="1000.000000pt" viewBox="0 0 1000.000000 1000.000000"
 preserveAspectRatio="xMidYMid meet" >

<g transform="translate(0.000000,1000.000000) scale(0.100000,-0.100000)"
fill="#000000" stroke="none">
<path fill="white" d="M4555 8011 c-110 -11 -299 -33 -420 -50 -121 -17 -240 -33 -265 -37
-42 -5 -145 -31 -356 -89 -50 -13 -143 -47 -208 -75 -64 -27 -118 -50 -120
-50 -21 0 -292 -158 -363 -212 -106 -80 -240 -217 -298 -304 -44 -65 -88 -154
-77 -154 4 0 2 -4 -4 -8 -17 -12 -82 -221 -101 -328 -14 -74 -18 -149 -17
-299 0 -190 2 -204 28 -290 35 -111 62 -165 142 -282 35 -51 66 -110 70 -130
5 -26 -1 -69 -20 -145 -15 -60 -29 -132 -32 -161 -10 -115 -16 -322 -15 -504
1 -105 -3 -194 -8 -197 -19 -12 -108 214 -131 335 -9 46 -8 55 8 73 43 49 75
154 63 206 -15 62 -28 86 -65 118 -33 29 -43 32 -98 32 -78 0 -120 -25 -153
-91 -18 -35 -25 -64 -25 -107 0 -54 3 -64 41 -111 32 -40 51 -54 84 -63 l43
-12 16 -88 c14 -76 51 -178 87 -241 5 -10 24 -45 40 -78 17 -33 45 -79 63
-102 l33 -43 6 -205 c4 -112 11 -386 17 -609 16 -695 22 -756 77 -867 51 -103
180 -167 353 -177 47 -3 121 -10 165 -16 44 -5 233 -13 420 -16 187 -3 403 -9
480 -12 l140 -7 7 -65 c9 -71 38 -248 45 -266 2 -7 -7 -23 -21 -37 -23 -23
-31 -25 -84 -20 -96 9 -161 -40 -148 -110 10 -54 83 -107 147 -107 37 0 129
62 203 139 l49 50 -16 53 c-20 65 -57 283 -57 333 l0 37 38 -6 c20 -3 172 -8
337 -11 363 -7 704 -20 711 -28 11 -11 -51 -355 -67 -372 -33 -34 51 -130 170
-194 55 -29 68 -32 109 -26 86 13 122 43 122 103 0 30 -38 81 -62 83 -7 0 -32
2 -55 4 -51 4 -108 22 -126 40 -12 11 -11 38 4 162 10 81 21 162 24 178 l6 30
182 1 c504 1 908 12 1017 27 63 9 167 21 230 26 63 6 140 18 170 26 30 8 107
28 170 45 108 28 157 52 217 103 46 40 65 106 87 302 2 17 4 31 5 32 0 1 20
-4 42 -12 52 -19 73 -19 138 1 92 27 145 109 143 220 0 55 -31 107 -77 128
l-35 17 0 82 c0 150 -55 393 -117 527 l-36 75 1 540 c0 399 -3 562 -13 626
-16 103 -33 169 -48 188 -7 7 -12 39 -12 70 0 52 4 61 47 116 123 156 171 221
188 254 74 148 81 181 87 441 6 271 -7 372 -68 552 -44 129 -99 219 -191 319
-56 60 -181 167 -238 203 -25 16 -56 37 -70 46 -114 77 -549 234 -868 314
-287 72 -467 103 -827 142 -324 36 -763 42 -1060 15z m-51 -219 c3 -5 99 -12
213 -15 245 -8 377 -27 695 -102 212 -50 558 -208 688 -313 137 -113 256 -269
317 -417 46 -113 83 -244 89 -314 3 -31 12 -87 20 -126 24 -117 16 -328 -18
-455 -19 -74 -85 -209 -150 -307 l-61 -93 5 -79 c3 -44 9 -86 15 -93 10 -12
18 -63 44 -268 19 -162 15 -1959 -5 -2135 -3 -27 -10 -96 -16 -152 -5 -56 -13
-110 -18 -120 -5 -10 -17 -35 -27 -55 -33 -69 -63 -88 -161 -103 -192 -28
-1784 -10 -2114 24 -52 6 -225 13 -385 15 -325 6 -455 17 -630 51 -176 34
-230 52 -267 88 -42 42 -93 154 -113 247 -17 83 -41 556 -51 1005 -3 149 -10
344 -15 435 -8 158 -5 783 5 845 3 17 9 50 15 75 6 25 17 75 25 112 14 62 55
150 77 164 6 3 -11 30 -37 61 -104 121 -191 327 -215 508 -14 109 -7 316 16
433 18 92 83 289 120 362 62 123 213 296 323 372 80 55 374 189 490 224 231
68 526 106 952 120 79 3 146 7 149 9 7 8 19 6 25 -3z m3156 -4058 c14 -171 13
-224 -2 -224 -7 0 -26 -7 -42 -15 l-28 -15 6 128 c4 70 9 176 12 237 l6 110
19 -47 c11 -29 22 -97 29 -174z"/>
<path fill="white" d="M3353 5721 c-24 -18 -51 -50 -67 -82 -23 -46 -26 -65 -26 -149 0 -84
3 -103 26 -149 26 -51 91 -111 121 -111 7 0 13 -4 13 -10 0 -11 87 -14 92 -2
2 4 21 16 42 27 47 24 93 84 109 142 6 24 15 43 19 43 4 0 8 27 8 60 0 33 -4
60 -10 60 -5 0 -10 8 -10 18 0 37 -53 124 -93 153 -35 26 -48 29 -112 29 -64
0 -77 -3 -112 -29z m211 -67 c22 -8 20 -40 -4 -64 -37 -37 -60 -21 -60 41 0
24 4 29 24 29 13 0 31 -3 40 -6z m-103 -70 c20 -21 24 -36 24 -84 0 -48 -4
-63 -24 -84 -14 -15 -35 -26 -51 -26 -16 0 -37 11 -51 26 -20 21 -24 36 -24
84 0 48 4 63 24 84 14 15 35 26 51 26 16 0 37 -11 51 -26z"/>
<path fill="white" d="M5023 5721 c-24 -18 -51 -50 -67 -82 -23 -46 -26 -65 -26 -149 0 -84
3 -103 26 -149 26 -51 91 -111 121 -111 7 0 13 -4 13 -10 0 -11 87 -14 92 -2
2 4 21 16 42 27 47 24 93 84 109 142 6 24 15 43 19 43 4 0 8 27 8 60 0 33 -4
60 -10 60 -5 0 -10 8 -10 18 0 37 -53 124 -93 153 -35 26 -48 29 -112 29 -64
0 -77 -3 -112 -29z m211 -67 c22 -8 20 -40 -4 -64 -37 -37 -60 -21 -60 41 0
24 4 29 24 29 13 0 31 -3 40 -6z m-103 -70 c20 -21 24 -36 24 -84 0 -48 -4
-63 -24 -84 -14 -15 -35 -26 -51 -26 -16 0 -37 11 -51 26 -20 21 -24 36 -24
84 0 48 4 63 24 84 14 15 35 26 51 26 16 0 37 -11 51 -26z"/>
<path fill="white" d="M3331 5058 c-19 -7 -51 -28 -73 -48 -32 -32 -38 -43 -38 -80 0 -36 6
-48 38 -80 123 -123 412 -67 412 79 0 43 -24 77 -78 109 -39 22 -59 27 -137
29 -49 1 -105 -3 -124 -9z"/>
<path fill="white" d="M5060 5037 c-158 -45 -190 -169 -63 -243 61 -36 184 -45 261 -20 143
48 149 195 10 250 -56 23 -153 29 -208 13z"/>
<path fill="white" d="M3941 4991 c-46 -46 -12 -160 71 -237 127 -117 327 -144 477 -63 115
61 174 152 155 241 -12 57 -36 60 -106 14 -70 -47 -147 -69 -233 -69 -106 0
-184 29 -317 117 -26 17 -27 17 -47 -3z"/>
</g>
</svg>